<?xml version="1.0" encoding="UTF-8" standalone="no"?>
<svg
   xmlns:dc="http://purl.org/dc/elements/1.1/"
   xmlns:cc="http://creativecommons.org/ns#"
   xmlns:rdf="http://www.w3.org/1999/02/22-rdf-syntax-ns#"
   xmlns:svg="http://www.w3.org/2000/svg"
   xmlns="http://www.w3.org/2000/svg"
   xmlns:sodipodi="http://sodipodi.sourceforge.net/DTD/sodipodi-0.dtd"
   xmlns:inkscape="http://www.inkscape.org/namespaces/inkscape"
   width="742.33582pt"
   height="363.22162pt"
   viewBox="0 0 742.33577 363.2216"
   version="1.1"
   id="svg4804"
   inkscape:version="0.91 r13725"
   sodipodi:docname="docker-icinga.svg"
   inkscape:export-filename="/var/www/binfalse.de/assets/media/pics/2016/TEXPILE.png"
   inkscape:export-xdpi="176.39999"
   inkscape:export-ydpi="176.39999">
  <metadata
     id="metadata4861">
    <rdf:RDF>
      <cc:Work
         rdf:about="">
        <dc:format>image/svg+xml</dc:format>
        <dc:type
           rdf:resource="http://purl.org/dc/dcmitype/StillImage" />
        <dc:title></dc:title>
      </cc:Work>
    </rdf:RDF>
  </metadata>
  <sodipodi:namedview
     pagecolor="#ffffff"
     bordercolor="#666666"
     borderopacity="1"
     objecttolerance="10"
     gridtolerance="10"
     guidetolerance="10"
     inkscape:pageopacity="0"
     inkscape:pageshadow="2"
     inkscape:window-width="2556"
     inkscape:window-height="1401"
     id="namedview4859"
     showgrid="false"
     fit-margin-top="0"
     fit-margin-left="0"
     fit-margin-right="0"
     fit-margin-bottom="0"
     inkscape:zoom="1.7940586"
     inkscape:cx="456.74206"
     inkscape:cy="303.30719"
     inkscape:window-x="0"
     inkscape:window-y="18"
     inkscape:window-maximized="0"
     inkscape:current-layer="svg4804" />
  <defs
     id="defs4806" />
  <path
     style="fill:#364548;fill-rule:evenodd;stroke:none;stroke-width:1"
     inkscape:connector-curvature="0"
     id="path8"
     d="m 495.80599,142.86306 33.65001,0 c 15.53906,0 31.52232,-2.76832 46.23837,-7.75472 7.23096,-2.45191 15.34729,-5.86398 22.4801,-10.1552 -9.39451,-12.26566 -14.19077,-27.753278 -15.60294,-43.019538 -1.91727,-20.76395 2.27105,-47.79088 16.32462,-64.04227 l 6.99564,-8.0914002 8.33612,6.7010102 c 20.98837,16.86242 38.63949,40.4243 41.75073,67.28443 25.27181,-7.43363 54.94235,-5.67535 77.21827,7.1811 l 9.13886,5.2732 -4.81024,9.388288 c -18.8389,36.76746 -58.22349,48.15715 -96.72896,46.1417 -57.61869,143.50976 -183.06115,211.45197 -335.15951,211.45197 -78.57905,0 -150.67372,-29.37437 -191.72773,-99.09199 l -0.67338,-1.13788 -5.98087,-12.16908 C 93.377645,220.13428 88.768462,186.51546 91.895291,152.92472 l 0.938359,-10.06166 56.90791,0"
     sodipodi:nodetypes="cscccccccccscscccccc" />
  <path
     style="fill:#22a0c8;fill-rule:evenodd;stroke:none;stroke-width:1"
     inkscape:connector-curvature="0"
     id="path10"
     d="m 644.86953,99.999352 c 4.46267,-34.67877 -21.49028,-61.91925 -37.58579,-74.85209 -18.54744,21.44354 -21.42951,77.643798 7.66899,101.305428 -16.23895,14.42452 -50.45945,27.49919 -85.49673,27.49919 l -426.51238,0 c -3.407404,36.57578 3.0146,70.25696 17.67919,99.08736 l 4.85234,8.87387 c 3.07227,5.21397 6.42823,10.2456 10.05542,15.09011 l 10e-4,0 c 17.53422,1.12545 33.70145,1.51512 48.49229,1.18776 l 0.007,0 c 29.06732,-0.64375 52.78348,-4.07295 70.75884,-10.30169 2.67634,-0.93055 5.59275,0.48947 6.51865,3.16268 0.92432,2.67326 -0.491,5.59124 -3.16425,6.51865 -2.38955,0.82769 -4.88196,1.60239 -7.45542,2.33811 -0.004,0.001 -0.007,0.001 -0.0106,0.003 -14.15334,4.04022 -29.32918,6.76022 -48.91158,7.96824 1.16124,0.0182 -1.21115,0.17464 -1.21738,0.17609 -0.66558,0.0403 -1.50419,0.13568 -2.1729,0.17281 -7.70636,0.43176 -16.02535,0.52214 -24.52982,0.52214 -9.30099,0 -18.46168,-0.17609 -28.70258,-0.69518 l -0.26187,0.17281 c 35.53764,39.94263 91.10348,63.89882 160.75409,63.89882 147.40964,0 272.44371,-65.34531 327.81002,-212.04897 39.28174,4.03091 77.03279,-5.98552 94.20536,-39.50773 -27.35431,-15.785648 -62.52877,-10.752498 -82.78298,-0.572378" />
  <path
     style="fill:#37b1d9;fill-rule:evenodd;stroke:none;stroke-width:1"
     inkscape:connector-curvature="0"
     id="path12"
     d="m 644.86953,99.999352 c 4.46267,-34.67877 -21.49028,-61.91925 -37.58579,-74.85209 -18.54744,21.44354 -21.42951,77.643798 7.66899,101.305428 -16.23895,14.42452 -50.45945,27.49919 -85.49673,27.49919 l -401.25617,0 c -1.74111,56.01477 19.0462,98.53398 55.82459,124.2391 l 0.007,0 c 29.06732,-0.64375 52.78347,-4.07295 70.75883,-10.30169 2.67635,-0.93055 5.59276,0.48947 6.51865,3.16268 0.92433,2.67326 -0.491,5.59124 -3.16424,6.51865 -2.38955,0.82769 -4.88196,1.60239 -7.45542,2.33811 -0.004,0.001 -0.007,0.001 -0.0106,0.003 -14.15334,4.04022 -30.63387,7.10937 -50.21626,8.31739 -0.004,0 -0.47387,-0.45359 -0.4801,-0.45203 50.16637,25.73317 122.90948,25.6412 206.30812,-6.3955 93.51486,-35.92419 180.53131,-104.3683 241.24875,-182.651198 -0.91651,0.41306 -1.80812,0.83703 -2.67009,1.2688" />
  <path
     style="fill:#1b81a5;fill-rule:evenodd;stroke:none;stroke-width:1"
     inkscape:connector-curvature="0"
     id="path14"
     d="m 103.74169,198.39148 c 2.65141,19.59177 8.38133,37.93656 16.88112,54.64776 l 4.85234,8.87387 c 3.07227,5.21397 6.42823,10.2456 10.05698,15.09011 17.53734,1.12545 33.70611,1.51512 48.49853,1.18776 29.06733,-0.64375 52.78348,-4.07295 70.75885,-10.30169 2.67634,-0.93055 5.59272,0.48947 6.51861,3.16268 0.92433,2.67326 -0.491,5.59124 -3.16424,6.51865 -2.38953,0.82769 -4.88196,1.60239 -7.45542,2.33811 -0.004,0.001 -0.007,0.001 -0.0106,0.003 -14.15333,4.04022 -30.54657,6.93478 -50.12896,8.14437 -0.67182,0.0403 -1.844,0.0485 -2.52206,0.0859 -7.70328,0.43332 -15.93653,0.69672 -24.44253,0.69672 -9.29943,0 -18.80928,-0.17754 -29.04862,-0.69672 35.53608,39.94263 91.44951,63.98613 161.1001,63.98613 126.19681,0 235.99113,-47.89999 299.71538,-153.73663 l -501.61074,0" />
  <path
     style="fill:#1d91b4;fill-rule:evenodd;stroke:none;stroke-width:1"
     inkscape:connector-curvature="0"
     id="path16"
     d="m 132.03899,198.39148 c 7.54429,34.39975 25.67395,61.40645 51.99167,79.7995 29.06733,-0.64375 52.78348,-4.07295 70.75885,-10.30169 2.67634,-0.93055 5.59272,0.48947 6.51861,3.16268 0.92433,2.67326 -0.491,5.59124 -3.16424,6.51865 -2.38953,0.82769 -4.88196,1.60239 -7.45542,2.33811 -0.004,0.001 -0.007,0.001 -0.0106,0.003 -14.15333,4.04022 -30.89418,6.93478 -50.47658,8.14437 50.16326,25.72848 122.69594,25.35909 206.08832,-6.67451 50.45008,-19.38289 99.00474,-48.23822 142.56674,-82.99023 l -416.81861,0" />
  <path
     style="fill:#d3ecec;fill-rule:evenodd;stroke:none;stroke-width:1"
     inkscape:connector-curvature="0"
     id="path36"
     d="m 281.4517,237.11674 c 8.7866,0 15.91,7.12657 15.91,15.91312 0,8.78662 -7.1234,15.91003 -15.91,15.91003 -8.78819,0 -15.91316,-7.12341 -15.91316,-15.91003 0,-8.78655 7.12497,-15.91312 15.91316,-15.91312" />
  <path
     style="fill:#364548;fill-rule:evenodd;stroke:none;stroke-width:1"
     inkscape:connector-curvature="0"
     id="path38"
     d="m 281.4517,241.63086 c 1.45585,0 2.84469,0.2743 4.12596,0.77156 -1.38883,0.80273 -2.32877,2.30693 -2.32877,4.02777 0,2.56881 2.08248,4.64818 4.65128,4.64818 1.7598,0 3.28896,-0.97733 4.07922,-2.42077 0.55804,1.34521 0.86822,2.82289 0.86822,4.37226 0,6.29266 -5.10176,11.39439 -11.39591,11.39439 -6.29262,0 -11.39747,-5.10173 -11.39747,-11.39439 0,-6.29571 5.10485,-11.399 11.39747,-11.399" />
  <path
     style="fill:#364548;fill-rule:evenodd;stroke:none;stroke-width:1"
     inkscape:connector-curvature="0"
     id="path40"
     d="m -2.4414063e-5,204.14324 740.208104414063,0 c -16.11732,-4.08857 -50.99405,-9.61119 -45.24231,-30.73363 -29.30578,33.91188 -99.98203,23.791 -117.81863,7.06887 -19.86302,28.80858 -135.49474,17.85844 -143.55969,-4.58426 -24.90083,29.22322 -102.06136,29.22322 -126.96371,0 -8.06807,22.4427 -123.69824,33.39284 -143.56277,4.58426 -17.83662,16.72213 -88.506625,26.84301 -117.815547,-7.06887 5.751734,21.12244 -29.124995,26.64506 -45.245447414063,30.73363" />
  <path
     style="fill:#bdd9d7;fill-rule:evenodd;stroke:none;stroke-width:1"
     inkscape:connector-curvature="0"
     id="path42"
     d="m 323.75114,351.78363 c -39.40645,-18.70018 -61.03701,-44.12005 -73.07203,-71.87177 -14.63653,4.17894 -32.23313,6.8491 -52.6775,7.99629 -7.70171,0.43177 -15.80248,0.65311 -24.30537,0.65311 -9.80135,0 -20.12953,-0.28996 -30.9721,-0.86506 36.13775,36.1159 80.59601,63.92379 162.91292,64.43191 6.07751,0 12.11137,-0.11861 18.11408,-0.34452" />
  <path
     style="fill:#d3ecec;fill-rule:evenodd;stroke:none;stroke-width:1"
     inkscape:connector-curvature="0"
     id="path44"
     d="m 265.3172,305.51876 c -5.45245,-7.40088 -10.74125,-16.70185 -14.62874,-25.61003 -14.63965,4.18054 -32.23935,6.85223 -52.68685,7.99942 14.04422,7.62378 34.13165,14.68797 67.31559,17.61061" />
  <g
     id="g4241"
     transform="matrix(1.1028017,0,0,1.1028017,6.3085587,-90.468379)">
    <path
       style="fill:#364548;fill-opacity:1"
       d="m 242.2715,217.21048 c -7.48543,-2.78194 -12.50557,-7.46255 -15.96461,-14.88491 -2.14509,-4.60289 -2.24848,-5.395 -2.51775,-19.28999 -0.32725,-16.88657 0.62741,-22.24851 5.13323,-28.83102 5.10618,-7.45959 11.91158,-10.94367 21.53484,-11.02494 5.29655,-0.0447 7.15862,0.30379 10.8,2.02141 5.21345,2.45916 10.45764,7.48586 12.74998,12.22122 2.22636,4.59905 2.07949,6.59692 -0.68844,9.36486 -3.85992,3.85991 -8.02715,2.80136 -11.48075,-2.9163 -2.82764,-4.68135 -6.30289,-6.73926 -11.38079,-6.73926 -4.7546,0 -8.49882,2.00537 -10.80432,5.78671 -1.43344,2.35102 -1.58999,4.05021 -1.59269,17.28641 -0.002,11.89085 0.24368,15.19891 1.29564,17.41575 1.86272,3.92539 5.37595,6.12995 10.43779,6.54971 3.63264,0.30125 4.76411,0.0368 7.451,-1.74128 1.74238,-1.15304 3.71081,-3.14621 4.37428,-4.42923 1.59288,-3.08027 4.97916,-5.67405 7.40772,-5.67405 2.46123,0 6.63058,4.07837 6.63058,6.48588 0,2.89292 -3.02535,8.34971 -6.65002,11.99456 -6.91112,6.9496 -18.07385,9.62361 -26.73569,6.40447 z M 386.92049,217.46 c -7.79662,-2.8371 -13.17248,-7.80151 -16.78239,-15.49792 -2.03428,-4.33715 -2.08089,-4.81277 -2.08089,-21.23651 0,-16.73141 0.009,-16.8196 2.24331,-21.6 3.82936,-8.19365 9.68889,-13.09346 18.29455,-15.29813 11.42763,-2.92762 24.08888,2.76566 29.42895,13.23307 1.85766,3.64132 2.04045,5.80558 0.70252,8.31765 -2.97783,5.59108 -9.01374,4.90765 -12.85741,-1.45581 -2.73653,-4.53052 -5.40366,-6.20582 -10.48562,-6.58629 -5.22016,-0.39083 -9.03892,1.55709 -11.51314,5.87279 -1.6675,2.90857 -1.78684,4.07842 -1.78684,17.51672 0,13.43831 0.11934,14.60815 1.78684,17.51672 4.58723,8.00134 16.59045,8.1644 21.39116,0.29059 0.87434,-1.43402 1.59105,-3.77731 1.59269,-5.20731 0.002,-2.22228 -0.27999,-2.6 -1.94493,-2.6 -2.71354,0 -6.12591,-1.40522 -7.36144,-3.03145 -1.23765,-1.62902 -1.40603,-6.08441 -0.30753,-8.137 1.15891,-2.16542 5.10183,-3.23192 11.93627,-3.22856 6.95587,0.003 10.88504,1.74238 11.75328,5.20171 0.28359,1.12988 0.36615,5.37104 0.18348,9.42481 -0.39845,8.84229 -2.60984,14.38314 -7.80068,19.54545 -7.0318,6.99315 -18.20378,9.93913 -26.39218,6.95947 z m -182.4019,-3.20554 -2.46138,-2.07112 0,-31.19042 0,-31.19043 2.33846,-2.33846 c 2.9002,-2.90019 5.57464,-2.98144 8.80016,-0.26735 l 2.46138,2.07112 -0.0254,31.32888 c -0.0268,32.98666 -0.009,32.8207 -3.72197,34.79822 -2.6896,1.43249 -4.70258,1.12189 -7.39121,-1.14044 z m 81.90226,0.10747 -1.96364,-1.96363 0,-31.67273 0,-31.67273 1.96364,-1.96363 c 2.75246,-2.75247 6.31419,-2.60888 9.2979,0.37482 l 2.33846,2.33846 0,30.92308 0,30.92308 -2.33846,2.33846 c -2.98371,2.98371 -6.54544,3.12729 -9.2979,0.37482 z m 21.93147,-0.41816 -2.38181,-2.38182 0.24335,-24.21819 0.24335,-24.21819 2.11837,-4.51837 c 2.69445,-5.74713 7.17729,-10.22794 13.16181,-13.1559 12.1216,-5.93055 27.45338,-0.65268 34.36936,11.83143 l 2.35046,4.24284 0.24155,25.39482 0.24155,25.39481 -2.00519,2.00519 c -2.79506,2.79507 -6.33752,2.66865 -9.33945,-0.33328 l -2.33846,-2.33846 0,-22.55261 c 0,-21.48879 -0.0799,-22.69482 -1.69431,-25.56724 -4.77812,-8.50152 -16.86839,-8.5018 -21.86243,-5.1e-4 -1.52847,2.60188 -1.6712,4.43691 -2.04326,26.26955 l -0.4,23.47226 -1.88862,1.52774 c -2.81284,2.27534 -6.20852,1.95367 -9.01627,-0.85407 z m 118.176,-0.0796 c -1.13911,-1.35373 -2.07111,-3.1712 -2.07111,-4.03878 0,-2.67981 25.49472,-61.78971 27.30187,-63.29982 0.92146,-0.77 2.85562,-1.4 4.29813,-1.4 1.44251,0 3.38144,0.63 4.30873,1.4 1.98585,1.649 27.29127,60.60433 27.29127,63.58187 0,3.05422 -3.39544,6.21814 -6.67318,6.21814 -3.96972,0 -5.61668,-1.86121 -9.20282,-10.40001 l -3.19186,-7.6 -12.3693,-0.21982 -12.3693,-0.21983 -3.45128,8.08269 c -1.89821,4.44548 -4.18186,8.5944 -5.07478,9.21983 -2.82786,1.9807 -6.47778,1.43123 -8.79637,-1.32425 z m 35.0671,-30.23864 c 0.52471,-0.84901 -4.65482,-12.99598 -5.54332,-13.00014 -0.91639,-0.004 -6.10099,12.08128 -5.55899,12.95826 0.58226,0.9421 10.52277,0.97959 11.10231,0.0418 z m -354.33821,22.02363 c -11.172925,-5.12894 -12.356665,-20.49429 -2.08471,-27.06044 3.26325,-2.08596 4.23374,-2.31767 8.48471,-2.02574 2.64,0.1813 5.55981,0.5909 6.48846,0.91025 1.44696,0.49757 2.33859,-0.34718 6.23371,-5.90594 2.49989,-3.5676 4.74822,-7.0155 4.9963,-7.66198 0.25519,-0.66501 -0.6258,-2.40191 -2.02879,-3.99983 -4.70562,-5.3594 -6.06199,-8.93489 -6.06199,-15.97991 0,-5.18487 0.35859,-7.07764 1.88867,-9.96907 l 1.88867,-3.56907 -2.70252,-2.30359 c -4.94172,-4.21226 -6.04523,-4.75226 -7.79627,-3.81513 -0.88058,0.47127 -2.3171,0.85686 -3.19227,0.85686 -2.22106,0 -6.23341,-3.57325 -6.87276,-6.12064 -1.12973,-4.50119 2.8944,-9.07936 7.9806,-9.07936 3.25495,0 6.76958,3.98996 6.81655,7.73846 0.0334,2.66897 0.52029,3.44621 3.79673,6.06154 2.0671,1.65 4.19385,3 4.72611,3 0.53226,0 2.26192,-0.87825 3.8437,-1.95168 4.15858,-2.82208 10.7739,-4.13251 15.73326,-3.1166 l 3.99502,0.81837 4.49245,-9.0251 4.49245,-9.0251 -2.12018,-2.12017 c -4.22512,-4.225125 -4.80762,-10.791215 -1.38389,-15.599395 2.58641,-3.63228 5.89628,-5.019064 10.97408,-4.597974 3.66217,0.30369 4.76986,0.802274 7.21515,3.247554 2.52414,2.52414 2.92978,3.47456 3.21357,7.52943 0.27171,3.88218 0.0164,5.09829 -1.56195,7.440665 -2.20468,3.27182 -6.37771,5.59699 -10.04818,5.59875 -2.50046,0.001 -2.75234,0.31834 -7.03461,8.85694 l -4.44129,8.85569 4.36158,4.71103 c 2.39888,2.59107 4.78233,5.98588 5.29656,7.54401 0.83897,2.54211 1.15448,2.77744 3.07302,2.29209 1.17593,-0.29749 8.04445,-2.02144 15.26337,-3.83101 l 13.12531,-3.29012 1.07929,-3.70145 c 1.42307,-4.88046 4.88217,-7.83593 9.1712,-7.83593 4.29206,0 7.4163,1.76719 8.99102,5.08566 1.77789,3.74663 1.64412,6.17876 -0.51615,9.38438 -3.40912,5.0588 -8.70333,6.1207 -13.67948,2.7438 l -2.92677,-1.98617 -15.71529,3.78899 -15.71528,3.78899 -1.00573,4.93045 c -1.17261,5.74861 -1.98349,7.47393 -5.63918,11.99854 -1.48184,1.83405 -2.69425,3.56134 -2.69425,3.83842 0,1.29944 5.70421,9.22694 6.63921,9.22694 0.5825,0 1.84697,0.73403 2.80994,1.63117 2.39426,2.23059 2.37989,6.63751 -0.0272,8.32347 -4.79907,3.36139 -10.65179,-1.01589 -8.59423,-6.42767 0.65158,-1.71379 0.34594,-2.79355 -1.82244,-6.43822 -2.56294,-4.30784 -2.65088,-4.36858 -5.40533,-3.73392 -2.67362,0.61605 -11.82703,0.68104 -15.94274,0.11321 -1.64689,-0.22722 -2.71292,0.82077 -7,6.88151 -2.7815,3.93226 -5.05726,7.5086 -5.05726,7.94743 0,0.43882 0.76276,2.37351 1.69501,4.29929 3.29624,6.80912 0.98128,14.9908 -5.49765,19.43024 -3.34682,2.29327 -10.58641,2.95469 -14.19736,1.29708 z"
       id="path4211"
       inkscape:connector-curvature="0" />
    <path
       style="fill:#273235;fill-opacity:1"
       d="m 243.99427,216.12278 c -4.83411,-1.58101 -8.57396,-4.09948 -12.19301,-8.21094 -5.27693,-5.9949 -5.81719,-8.81836 -5.52251,-28.86106 0.23946,-16.28704 0.37403,-17.64496 2.0616,-20.80317 7.93354,-14.84723 27.98978,-17.97272 39.76559,-6.19691 3.55213,3.55214 6.34287,9.32643 5.61534,11.61866 -0.27923,0.87979 -1.38252,2.17283 -2.45174,2.87342 -2.66561,1.74657 -5.90775,0.34336 -7.94431,-3.43832 -4.65992,-8.65295 -15.90537,-10.36303 -22.80108,-3.46732 -4.12368,4.12368 -5.04392,8.84752 -4.65996,23.92059 0.27084,10.6319 0.47396,11.98634 2.28626,15.24446 2.5473,4.57949 6.99225,7.19313 12.26358,7.21101 5.37686,0.0182 8.92034,-1.91294 12.56667,-6.8488 3.57134,-4.83434 5.6016,-5.8152 8.33273,-4.02569 2.75726,1.80663 3.12924,3.96122 1.37035,7.93749 -4.43828,10.03346 -18.43739,16.39956 -28.68951,13.04658 z m 144.5011,0.0606 c -7.54893,-2.13246 -14.76589,-8.69252 -17.10037,-15.54383 -1.87109,-5.49135 -1.81282,-34.3027 0.0806,-39.8706 1.91278,-5.62473 8.852,-12.41281 14.66718,-14.34773 12.0061,-3.99485 24.954,0.94566 30.38668,11.59459 2.01364,3.94705 2.00706,4.88425 -0.0526,7.50274 -2.97088,3.77685 -5.5583,2.78014 -10.27183,-3.95684 -5.87489,-8.39694 -18.87904,-7.8005 -23.8787,1.0952 -1.67798,2.98552 -1.79141,4.13602 -1.79141,18.16949 0,14.03348 0.11343,15.18398 1.7914,18.16952 2.50516,4.45734 7.17551,7.03048 12.76058,7.03048 7.0113,0 12.64476,-4.87795 13.8462,-11.98927 0.65689,-3.88808 0.13407,-4.81073 -2.72601,-4.81073 -3.85447,0 -7.24326,-1.60626 -7.76372,-3.67994 -1.43316,-5.71017 2.37149,-7.96921 12.34381,-7.32922 8.46256,0.54309 9.22838,1.57032 8.79937,11.80308 -0.37427,8.92712 -2.56704,14.66816 -7.47829,19.57942 -5.98131,5.9813 -15.92784,8.75453 -23.61289,6.58361 z m -182.65255,-3.01504 -2.10789,-1.65806 0,-30.68388 0,-30.68387 2.10789,-1.65806 c 2.63712,-2.07437 3.5471,-2.07437 6.18422,0 l 2.10789,1.65806 0,30.71078 c 0,30.56255 -0.008,30.71864 -1.75085,32.34193 -2.21915,2.06745 -3.88745,2.0606 -6.54126,-0.0269 z m 81.89211,0.0581 c -1.54459,-1.54459 -1.6,-2.66666 -1.6,-32.4 0,-29.73334 0.0554,-30.85541 1.6,-32.4 2.14026,-2.14026 4.45563,-2.0171 6.83636,0.36363 l 1.96364,1.96364 0,30.07273 0,30.07273 -1.96364,1.96363 c -2.38073,2.38074 -4.6961,2.5039 -6.83636,0.36364 z m 21.91925,-0.40802 -2.00803,-2.00804 0.24439,-23.412 0.24439,-23.41201 2.62792,-5.33486 c 8.90022,-18.06802 33.92018,-18.34221 43.81495,-0.48015 l 2.35712,4.25508 0.24245,24.55755 c 0.23565,23.86879 0.19638,24.60362 -1.4,26.2 -2.18102,2.18102 -4.48415,2.07348 -6.87881,-0.32119 l -1.96364,-1.96363 0,-22.4761 c 0,-24.35019 -0.0655,-24.76821 -4.52858,-28.89888 -3.30372,-3.05766 -5.32254,-3.89775 -9.36675,-3.89775 -6.53623,0 -10.72969,2.63018 -13.39263,8.4 -1.32197,2.86432 -1.47873,5.52875 -1.49446,25.4 -0.0167,21.12077 -0.0953,22.27778 -1.61757,23.8 -2.1515,2.1515 -4.45801,2.01472 -6.88075,-0.40802 z m 118.09359,-0.15736 c -1.0184,-1.29468 -1.53709,-2.82756 -1.28995,-3.81223 0.63974,-2.54894 24.42718,-58.19033 25.74588,-60.22239 1.2481,-1.92327 4.17941,-2.36569 6.708,-1.01243 1.4292,0.76488 26.02386,57.07183 26.96304,61.72909 0.7775,3.85552 -4.23904,6.90483 -7.73982,4.70467 -0.66,-0.4148 -2.83231,-4.45929 -4.82736,-8.98775 l -3.62736,-8.23358 -13.51342,0 -13.51341,0 -3.51,8 c -1.9305,4.4 -4.09595,8.45 -4.81213,9 -2.11461,1.62396 -4.75736,1.15616 -6.58347,-1.16538 z m 35.83808,-27.655 c 0.6193,-0.74621 -0.0688,-3.11577 -2.56083,-8.8188 -1.87423,-4.28912 -3.77448,-8.16521 -4.2228,-8.61352 -1.14375,-1.14375 -1.84618,-0.0404 -5.82559,9.15054 -2.74241,6.33396 -3.20391,8.03445 -2.33061,8.58775 1.76684,1.11943 13.96416,0.86963 14.93983,-0.30597 z m -356.6829,18.37811 c -11.647965,-6.15959 -8.156895,-23.92896 4.94863,-25.18823 6.16676,-0.59256 10.38272,1.41034 12.96831,6.16092 2.61449,4.80368 2.71035,8.96152 0.31504,13.66499 -3.36227,6.6022 -11.41085,8.96941 -18.23198,5.36232 z m 56.19198,-22.31781 c -1.03497,-1.03497 -1.25684,-3.73559 -0.47441,-5.77457 0.62444,-1.62726 3.83342,-1.63213 5.45727,-0.008 2.54017,2.5402 1.07992,6.74289 -2.34286,6.74289 -0.924,0 -2.112,-0.432 -2.64,-0.96 z M 138.31095,163.8527 c -8.24498,-2.42939 -14.60607,-12.69965 -13.52409,-21.83526 0.24373,-2.05795 1.42039,-5.73426 2.61479,-8.1696 1.70589,-3.47824 3.04684,-4.95097 6.25246,-6.86686 6.17594,-3.69117 10.11017,-4.4812 16.40288,-3.29385 4.49784,0.84868 5.82966,1.52562 9.1799,4.66596 5.42911,5.08898 8.03154,11.03463 7.35782,16.81004 -1.07743,9.23608 -6.39167,16.36863 -13.95165,18.72532 -5.19225,1.61859 -8.74761,1.60972 -14.33211,-0.0358 z m 65.06781,-29.09517 c -2.5565,-2.24464 -2.77621,-2.77133 -2.41945,-5.8 0.5268,-4.47228 3.99396,-7.73836 8.18824,-7.71338 7.61461,0.0453 10.76274,8.9998 4.8988,13.93398 -3.41988,2.87764 -7.07525,2.73351 -10.66759,-0.4206 z m -92.31632,-12.4119 c -2.73594,-1.91633 -3.55566,-4.75754 -2.15439,-7.46729 2.97713,-5.75715 10.82688,-3.18152 10.82688,3.55247 0,2.52697 -0.3377,3.01829 -2.7743,4.03637 -3.46361,1.44719 -3.66441,1.44305 -5.89819,-0.12155 z m 50.48945,-20.86604 c -3.16481,-3.502815 -3.99974,-7.292495 -2.48403,-11.274875 1.51329,-3.97602 5.50064,-6.57836 10.07949,-6.57836 3.08706,0 4.00034,0.42453 6.6817,3.10588 2.66647,2.66648 3.10421,3.60022 3.09409,6.59999 -0.015,4.43487 -1.30539,6.970235 -4.71817,9.270115 -1.88354,1.26931 -3.82629,1.81065 -6.38835,1.78009 -3.18006,-0.0379 -4.03363,-0.43345 -6.26473,-2.90284 z"
       id="path4203"
       inkscape:connector-curvature="0" />
    <path
       style="color:#000000;clip-rule:nonzero;display:inline;overflow:visible;visibility:visible;opacity:1;isolation:auto;mix-blend-mode:normal;color-interpolation:sRGB;color-interpolation-filters:linearRGB;solid-color:#000000;solid-opacity:1;fill:#1b81a5;fill-opacity:1;fill-rule:nonzero;stroke:none;stroke-width:2.79999995;stroke-linecap:round;stroke-linejoin:round;stroke-miterlimit:4;stroke-dasharray:none;stroke-dashoffset:0;stroke-opacity:1;marker:none;color-rendering:auto;image-rendering:auto;shape-rendering:auto;text-rendering:auto;enable-background:accumulate"
       d="m 145.03748,124.82344 c -8.36618,0.3401 -16.40843,6.20202 -17.99532,14.66562 -3.53618,11.74439 6.87998,25.35921 19.40313,23.84063 14.33075,0.44909 24.12611,-18.67646 15.10469,-29.87031 -3.79459,-5.68725 -9.58739,-9.04421 -16.5125,-8.63594 z"
       id="path4229"
       inkscape:connector-curvature="0" />
    <path
       style="color:#000000;clip-rule:nonzero;display:inline;overflow:visible;visibility:visible;opacity:1;isolation:auto;mix-blend-mode:normal;color-interpolation:sRGB;color-interpolation-filters:linearRGB;solid-color:#000000;solid-opacity:1;fill:#1b81a5;fill-opacity:1;fill-rule:nonzero;stroke:none;stroke-width:2.79999995;stroke-linecap:round;stroke-linejoin:round;stroke-miterlimit:4;stroke-dasharray:none;stroke-dashoffset:0;stroke-opacity:1;marker:none;color-rendering:auto;image-rendering:auto;shape-rendering:auto;text-rendering:auto;enable-background:accumulate"
       d="m 112.6406,179.97656 c -9.7208,-0.59596 -14.743816,12.99478 -8.14844,19.56562 5.6874,6.62422 17.87201,4.24585 20.07188,-4.38436 2.67597,-7.33423 -3.55149,-17.08584 -11.92344,-15.18126 z"
       id="path4231"
       inkscape:connector-curvature="0" />
    <path
       style="color:#000000;clip-rule:nonzero;display:inline;overflow:visible;visibility:visible;opacity:1;isolation:auto;mix-blend-mode:normal;color-interpolation:sRGB;color-interpolation-filters:linearRGB;solid-color:#000000;solid-opacity:1;fill:#1b81a5;fill-opacity:1;fill-rule:nonzero;stroke:none;stroke-width:2.79999995;stroke-linecap:round;stroke-linejoin:round;stroke-miterlimit:4;stroke-dasharray:none;stroke-dashoffset:0;stroke-opacity:1;marker:none;color-rendering:auto;image-rendering:auto;shape-rendering:auto;text-rendering:auto;enable-background:accumulate"
       d="m 113.61247,113.30625 c -4.20633,0.42019 -4.84883,6.20582 -1.22968,8.01719 1.72256,1.29638 5.23685,-0.23162 5.72343,-2.13126 0.1935,-2.68811 -1.45176,-5.95484 -4.49375,-5.88593 z"
       id="path4233"
       inkscape:connector-curvature="0" />
    <path
       style="color:#000000;clip-rule:nonzero;display:inline;overflow:visible;visibility:visible;opacity:1;isolation:auto;mix-blend-mode:normal;color-interpolation:sRGB;color-interpolation-filters:linearRGB;solid-color:#000000;solid-opacity:1;fill:#1b81a5;fill-opacity:1;fill-rule:nonzero;stroke:none;stroke-width:2.79999995;stroke-linecap:round;stroke-linejoin:round;stroke-miterlimit:4;stroke-dasharray:none;stroke-dashoffset:0;stroke-opacity:1;marker:none;color-rendering:auto;image-rendering:auto;shape-rendering:auto;text-rendering:auto;enable-background:accumulate"
       d="m 169.11716,85.262496 c -7.2341,-0.551776 -12.17434,8.843072 -7.01718,14.257816 4.03175,6.877908 15.933,1.952778 15.21406,-5.65 0.50266,-4.095712 -3.45953,-7.467704 -6.90625,-8.57344 -0.42896,-0.03788 -0.86026,-0.04946 -1.29063,-0.03438 z"
       id="path4235"
       inkscape:connector-curvature="0" />
    <path
       style="color:#000000;clip-rule:nonzero;display:inline;overflow:visible;visibility:visible;opacity:1;isolation:auto;mix-blend-mode:normal;color-interpolation:sRGB;color-interpolation-filters:linearRGB;solid-color:#000000;solid-opacity:1;fill:#1b81a5;fill-opacity:1;fill-rule:nonzero;stroke:none;stroke-width:2.79999995;stroke-linecap:round;stroke-linejoin:round;stroke-miterlimit:4;stroke-dasharray:none;stroke-dashoffset:0;stroke-opacity:1;marker:none;color-rendering:auto;image-rendering:auto;shape-rendering:auto;text-rendering:auto;enable-background:accumulate"
       d="m 209.0031,122.82813 c -5.26905,-0.0784 -9.35589,8.2723 -4.03281,11.12187 5.08285,5.14424 13.98058,-3.34301 9.12813,-8.77969 -1.21224,-1.50343 -3.16698,-2.39591 -5.09532,-2.34218 z"
       id="path4237"
       inkscape:connector-curvature="0" />
    <path
       style="color:#000000;clip-rule:nonzero;display:inline;overflow:visible;visibility:visible;opacity:1;isolation:auto;mix-blend-mode:normal;color-interpolation:sRGB;color-interpolation-filters:linearRGB;solid-color:#000000;solid-opacity:1;fill:#1b81a5;fill-opacity:1;fill-rule:nonzero;stroke:none;stroke-width:2.79999995;stroke-linecap:round;stroke-linejoin:round;stroke-miterlimit:4;stroke-dasharray:none;stroke-dashoffset:0;stroke-opacity:1;marker:none;color-rendering:auto;image-rendering:auto;shape-rendering:auto;text-rendering:auto;enable-background:accumulate"
       d="m 164.95935,175.7125 c -2.78298,0.86154 -0.68059,6.74923 2.10312,4.05625 1.59892,-1.35677 -0.14847,-4.34805 -2.10312,-4.05625 z"
       id="path4239"
       inkscape:connector-curvature="0" />
  </g>
</svg>
