<?xml version="1.0" encoding="UTF-8" standalone="no"?>
<svg
   xmlns:dc="http://purl.org/dc/elements/1.1/"
   xmlns:cc="http://creativecommons.org/ns#"
   xmlns:rdf="http://www.w3.org/1999/02/22-rdf-syntax-ns#"
   xmlns:svg="http://www.w3.org/2000/svg"
   xmlns="http://www.w3.org/2000/svg"
   xmlns:sodipodi="http://sodipodi.sourceforge.net/DTD/sodipodi-0.dtd"
   xmlns:inkscape="http://www.inkscape.org/namespaces/inkscape"
   width="16.933332mm"
   height="16.933332mm"
   viewBox="0 0 16.933332 16.933332"
   version="1.1"
   id="svg156987"
   inkscape:version="1.0 (4035a4fb49, 2020-05-01)"
   sodipodi:docname="favicon-mask.svg"
   inkscape:export-filename="/var/www/binfalse.de/assets/ico/favicon-mask.png"
   inkscape:export-xdpi="150"
   inkscape:export-ydpi="150">
  <defs
     id="defs156981">
    <symbol
       viewBox="0 0 64 64"
       id="emoji-1f575-1f3ff">
      <title
         id="title43216">1f575-1f3ff</title>
      <g
         style="fill:#2c3033"
         id="g43222">
        <path
           style="stroke-width:1"
           inkscape:connector-curvature="0"
           d="m 15.179146,9.8768958 c 0,0 -1.860021,-1.1260666 -6.9958481,-1.1260666 V 16.53249 l 4.5534791,-1.157553 2.442369,-5.4980412"
           id="path43218" />
        <path
           style="stroke-width:1"
           inkscape:connector-curvature="0"
           d="m 1.9274896,9.8768958 c 0,0 1.8600208,-1.1260666 6.9958479,-1.1260666 V 16.53249 L 4.3698583,15.374937 1.9274896,9.8768958"
           id="path43220" />
      </g>
      <path
         style="fill:#62727a;stroke-width:1"
         inkscape:connector-curvature="0"
         d="m 16.933333,16.933333 c 0,-5.454385 -3.790156,-4.44791 -8.4666663,-4.44791 C 3.7901562,12.485423 0,11.478948 0,16.933333 Z"
         id="path43224" />
      <path
         style="fill:#2c3033;stroke-width:1"
         inkscape:connector-curvature="0"
         d="m 5.7655354,12.969875 2.8088167,3.963458 2.3992419,-3.789362 z"
         id="path43226" />
      <path
         style="fill:#8a6859;stroke-width:1"
         inkscape:connector-curvature="0"
         d="m 11.267546,12.86801 c -1.3409085,1.459442 -4.2597918,1.459442 -5.6012293,0 C 4.6489937,11.760465 4.6741292,6.6053229 4.6741292,6.6053229 h 7.5861328 c 0,0 0.02514,5.1551421 -0.992187,6.2626871"
         id="path43228" />
      <path
         style="fill:#705041;stroke-width:1"
         inkscape:connector-curvature="0"
         d="m 9.2299896,10.596562 c 0,0.220134 -0.3418417,0.398463 -0.7633229,0.398463 -0.4214813,0 -0.763323,-0.178329 -0.763323,-0.398463 0,-0.220662 1.5266459,-0.220662 1.5266459,0"
         id="path43230" />
      <g
         style="fill:#62727a"
         id="g43236">
        <path
           style="stroke-width:1"
           inkscape:connector-curvature="0"
           d="M 8.5328125,16.933333 H 3.0186312 C 3.7494104,13.76971 1.9285479,9.8758375 1.9285479,9.8758375 c 0,0 2.3719896,1.9753795 4.5428958,1.9753795 l 2.0624271,5.082645"
           id="path43232" />
        <path
           style="stroke-width:1"
           inkscape:connector-curvature="0"
           d="m 8.5743521,16.933333 h 5.5141809 c -0.730779,-3.163623 1.090084,-7.0574955 1.090084,-7.0574955 0,0 -2.37199,1.9753795 -4.541838,1.9753795 z"
           id="path43234" />
      </g>
      <g
         style="fill:#2c3033"
         id="g43244">
        <path
           style="stroke-width:1"
           inkscape:connector-curvature="0"
           d="m 4.9850146,8.4441771 c 0,0 -0.2315104,-0.043127 -0.4135438,0.03466 -0.1166812,0.050271 -0.077258,-0.5109104 0,-0.6207125 0.1050396,-0.14896 0.4135438,-0.1418163 0.4135438,-0.1418163 v 0.7278688"
           id="path43238" />
        <path
           style="stroke-width:1"
           inkscape:connector-curvature="0"
           d="m 11.948583,8.4441771 c 0,0 0.231246,-0.043127 0.413279,0.03466 0.116946,0.050271 0.07752,-0.5109104 0,-0.6207125 -0.104775,-0.14896 -0.413279,-0.1418163 -0.413279,-0.1418163 v 0.7278688"
           id="path43240" />
        <path
           style="stroke-width:1"
           inkscape:connector-curvature="0"
           d="M 11.90625,7.6684187 C 11.68744,7.5295125 10.839979,7.5186646 10.333302,7.5186646 c -0.288925,0 -1.2485687,0.00847 -1.4610291,0.1201208 -0.030427,0.01614 -0.4058708,0.023813 -0.4058708,0.023813 0,0 -0.3751792,-0.00767 -0.4056063,-0.023813 C 7.8480708,7.5271312 6.8884271,7.5186646 6.5997667,7.5186646 c -0.5064125,0 -1.353873,0.010848 -1.572948,0.1497541 -0.3473979,0.220398 -0.3368145,0.5842001 -0.1431395,1.6240125 0.1013354,0.5426605 0.3598333,0.8289398 1.9483916,0.8715378 1.4057313,0.03757 1.2403667,-1.6779878 1.6345959,-1.6779878 0.3942291,0 0.2288645,1.7152938 1.6348603,1.6779878 1.5875,-0.0426 1.847056,-0.3288773 1.948127,-0.8715378 0.193411,-1.0398124 0.203994,-1.4036145 -0.143404,-1.6240125"
           id="path43242" />
      </g>
      <g
         style="fill:#383b3d"
         id="g43250">
        <path
           style="stroke-width:1"
           inkscape:connector-curvature="0"
           d="M 7.9099833,7.8951667 C 7.794625,7.8213479 7.2569917,7.7713417 6.5719854,7.7713417 c -0.7008812,0 -1.2940771,0.052388 -1.4107583,0.1251479 -0.1920875,0.1185333 -0.2500313,0.3452812 -0.060325,1.31445 0.069321,0.3537479 0.2481791,0.4246562 0.4206875,0.4939771 l 0.050535,0.020637 c 0.2738437,0.1143 0.7373937,0.1727729 1.2430125,0.1571625 C 7.3099083,9.8671062 7.3996021,9.7848208 7.5557062,9.6012 7.7062542,9.4234 8.1131833,8.5825542 8.0441271,8.1330271 8.0271937,8.0211083 7.98195,7.9414687 7.9099833,7.8951667"
           id="path43246" />
        <path
           style="stroke-width:1"
           inkscape:connector-curvature="0"
           d="M 9.0222917,7.8951667 C 9.13765,7.8213479 9.6752833,7.7713417 10.36029,7.7713417 c 0.700616,0 1.294077,0.052388 1.411022,0.1251479 0.191823,0.1185333 0.249767,0.3452812 0.06033,1.31445 -0.06959,0.3537479 -0.248179,0.4246562 -0.420952,0.4939771 l -0.05053,0.020637 c -0.273579,0.1143 -0.737394,0.1727729 -1.242748,0.1571625 C 9.6223667,9.8671062 9.5326729,9.7848208 9.3768333,9.6012 9.2262854,9.4234 8.8190917,8.5825542 8.8881479,8.1330271 8.9050812,8.0211083 8.950325,7.9414687 9.0222917,7.8951667"
           id="path43248" />
      </g>
      <path
         style="fill:#62727a;stroke-width:1"
         inkscape:connector-curvature="0"
         d="M 12.832292,5.7578625 C 10.930467,3.8327542 12.84896,0.35930417 11.36941,1.1821583 10.288587,1.7830271 9.2252271,2.1489458 8.4664021,2.1489458 7.7075771,2.1489458 6.6447458,1.7830271 5.5633937,1.1821583 4.0838437,0.35930417 6.0023375,3.8332833 4.1007771,5.7578625 2.2817667,6.7296771 1.4925146,6.6053229 1.4925146,6.8453 c 0,0.1304396 0.7728479,1.2996333 6.9738875,1.2996333 6.2010399,0 6.9744169,-1.1691937 6.9744169,-1.2996333 0,-0.2399771 -0.789517,-0.1156229 -2.608527,-1.0874375"
         id="path43252" />
      <path
         style="fill:#2c3033;stroke-width:1"
         inkscape:connector-curvature="0"
         d="m 8.4664021,6.0986458 c 2.0081879,0 3.4448749,-0.1158875 4.4719879,-0.2860146 0,0 -0.06959,-0.042069 -0.106098,-0.061648 C 12.632531,5.5485771 12.477221,5.3287083 12.353131,5.0993146 11.383433,5.2239333 10.119254,5.3070125 8.4664021,5.3070125 6.81355,5.3070125 5.5506937,5.2239333 4.5796729,5.0993146 4.4561125,5.3287083 4.3005375,5.5485771 4.1007771,5.7509833 4.064,5.7705625 3.9946792,5.8126312 3.9946792,5.8126312 5.0220562,5.9827583 6.4582146,6.0986458 8.4664021,6.0986458"
         id="path43254" />
    </symbol>
    <symbol
       viewBox="0 0 64 64"
       id="emoji-1f3c3-1f3ff">
      <title
         id="title18423">1f3c3-1f3ff</title>
      <path
         style="fill:#8a6859;stroke-width:1"
         inkscape:connector-curvature="0"
         d="m 7.9189792,4.9022 0.6164791,-0.1680104 0.6326188,2.2550437 -1.5875,0.4323292 z"
         id="path18425" />
      <path
         style="fill:#705041;stroke-width:1"
         inkscape:connector-curvature="0"
         d="M 7.8996646,4.8551042 C 8.1835625,5.8679292 8.1081562,6.4407521 7.3704979,6.6421 l 0.2100792,0.7805208 c 0.8725958,-0.2378604 0.9292166,-1.4083771 0.5979583,-2.5908 l -0.2778125,0.023283"
         id="path18427" />
      <path
         style="fill:#8a6859;stroke-width:1"
         inkscape:connector-curvature="0"
         d="M 7.4638958,1.2371917 4.2944521,3.2617833 C 4.09575,4.0928396 4.4762208,4.4002854 4.5489812,4.7154042 4.581525,4.8553687 4.3672125,5.1866271 4.2531771,5.3604583 3.9989125,5.7475437 4.6304729,5.8322104 4.8294396,5.7311396 5.0501021,6.0049833 4.8569562,6.1489167 5.3612521,5.96265 5.6388,5.8597271 5.9510083,5.4951312 5.9510083,5.4951312 4.9135771,6.6164354 5.3284437,6.848475 5.8081333,6.5725146 5.9920188,7.2292104 6.4055625,7.1167625 7.3114958,6.8696417 8.0499479,6.6685583 8.4603167,5.8443812 8.1766833,4.8315562 L 9.1188646,4.3915542 7.4628375,1.2371917"
         id="path18429" />
      <path
         style="fill:#231f20;stroke-width:1"
         inkscape:connector-curvature="0"
         d="M 5.8888312,0.66966042 C 8.4505271,-0.02910417 9.3868875,2.0253854 9.4482708,3.6091812 9.4808146,4.4526729 9.1977104,5.0728562 8.7614125,5.4247521 L 8.4664021,5.3337354 8.1774771,4.8304979 c 0,0 0.4685771,-0.2518833 0.4587875,-0.8561917 C 8.6315021,3.6978167 8.2317167,3.2771292 7.8398688,3.3610021 7.5665542,3.4200042 7.2347667,3.7221583 7.1696792,3.8049729 6.9860583,3.1496 6.931025,2.4344312 6.4235542,2.3629937 6.0065708,2.3042562 4.6071896,3.4536062 4.2936583,3.2609896 3.4530771,2.746375 4.3452521,1.089025 5.8890958,0.66860208"
         id="path18431" />
      <g
         style="fill:#47352d"
         id="g18439">
        <path
           style="stroke-width:1"
           inkscape:connector-curvature="0"
           d="m 7.8824667,4.0396583 c -0.049742,0.00661 -0.094985,0.026458 -0.1317625,0.055033 0.00873,-0.052388 0.023283,-0.1042459 0.040481,-0.1579563 0.02196,-0.066146 0.051858,-0.130175 0.078317,-0.2037292 -0.1336146,0.077258 -0.2338917,0.2159 -0.2577042,0.3788834 -0.02249,0.1645708 0.050271,0.3259666 0.1640417,0.4273021 -0.00847,-0.078052 -0.027252,-0.1476375 -0.033602,-0.2151063 -0.0037,-0.043392 -0.00476,-0.084667 -0.00317,-0.1259416 0.019315,-0.0045 0.037835,-0.009 0.055827,-0.012171 0.0381,-0.00556 0.070379,-0.014023 0.1042458,-0.016933 0.033867,-0.00556 0.067469,-0.00556 0.1060979,-0.010054 0.038365,-0.00344 0.078317,-0.00159 0.1288521,-0.009 C 8.08355,4.0698208 7.9816854,4.0282812 7.8824667,4.0396583"
           id="path18433" />
        <path
           style="stroke-width:1"
           inkscape:connector-curvature="0"
           d="m 5.3588708,4.3738271 c 0.058738,0.20955 -0.016933,0.4135437 -0.1693333,0.4548187 -0.1518708,0.041275 -0.3230563,-0.094985 -0.3817938,-0.3045354 -0.058737,-0.20955 0.016669,-0.4135437 0.1690688,-0.4550833 0.1524,-0.04154 0.3230562,0.094985 0.3820583,0.3048"
           id="path18435" />
        <path
           style="stroke-width:1"
           inkscape:connector-curvature="0"
           d="m 5.9520667,5.4953958 c 0,0 -0.2463271,0.6942667 -0.3272896,0.8040688 C 5.4522687,6.5346792 5.3445833,6.4402229 5.4117875,6.2640104 5.4813729,6.0827708 5.9520667,5.4953958 5.9520667,5.4953958"
           id="path18437" />
      </g>
      <g
         style="fill:#d3976e"
         id="g18445">
        <path
           style="stroke-width:1"
           inkscape:connector-curvature="0"
           d="m 13.167519,14.353646 c -0.09446,0.472016 0.22225,0.929216 0.706437,1.021027 l 0.405606,-2.030413 c 0.04763,-0.235743 -0.111125,-0.464608 -0.353483,-0.510645 l -0.438414,-0.08282 -0.320146,1.603375"
           id="path18441" />
        <path
           style="stroke-width:1"
           inkscape:connector-curvature="0"
           d="m 4.6180375,15.31276 c -0.4844521,-0.0926 -0.9543521,0.2159 -1.0485438,0.687917 l 2.0846521,0.395552 c 0.2418292,0.04577 0.4770438,-0.108214 0.523875,-0.345017 l 0.08546,-0.426508 -1.6454437,-0.311944"
           id="path18443" />
      </g>
      <path
         style="fill:#3b946f;stroke-width:1"
         inkscape:connector-curvature="0"
         d="M 12.595225,8.4388854 11.788775,6.7950292 C 11.692467,6.6002958 11.47154,6.5031937 11.262254,6.5399708 v -0.00238 L 9.4382167,6.6024125 C 9.1709875,6.61035 8.9643479,6.8267792 8.9730792,7.0852771 8.9818104,7.343775 9.2053833,7.546975 9.4707604,7.5385083 l 1.5901456,-0.056885 0.667015,1.3589 0.867833,-0.4016375"
         id="path18447" />
      <path
         style="fill:#8a6859;stroke-width:1"
         inkscape:connector-curvature="0"
         d="m 12.129029,8.5222292 -0.442648,0.1571625 c -0.157427,0.056092 -0.238125,0.2259541 -0.179916,0.3794125 l 0.07805,0.2076979 c 0.0418,0.1103312 0.143139,0.1820333 0.255852,0.1931458 0.124618,0.2693458 0.364331,0.5950481 0.892439,0.4066646 0.08731,-0.031221 0.570707,-0.2032 0.360627,-0.7590896 -0.30956,-0.8186208 -0.30956,-0.8186208 -0.964404,-0.5849937"
         id="path18449" />
      <path
         style="fill:#705041;stroke-width:1"
         inkscape:connector-curvature="0"
         d="m 11.964458,9.4601771 c 0.373327,-0.1497542 0.175154,-0.5230813 0.0807,-0.7924271 -0.01429,-0.039952 -0.07805,-0.022754 -0.06403,0.017463 0.07805,0.22225 0.283633,0.5836708 -0.03413,0.7112 -0.03916,0.01561 -0.02249,0.07964 0.01746,0.063765"
         id="path18451" />
      <path
         style="fill:#3e4347;stroke-width:1"
         inkscape:connector-curvature="0"
         d="m 11.194521,12.31556 -0.873125,-1.312862 v -0.0016 H 7.2487896 L 5.191125,12.393612 4.6085125,15.309321 6.2637458,15.622323 6.7135375,13.373365 8.5063542,12.195969 H 9.064625 l 1.105694,1.598083 2.994554,0.566208 0.322792,-1.611312 z"
         id="path18453" />
      <path
         style="fill:#47b892;stroke-width:1"
         inkscape:connector-curvature="0"
         d="M 10.321396,11.00111 9.3686312,6.6087625 6.9910854,7.0447958 C 6.8881625,7.0598771 6.7889437,7.10565 6.7122146,7.1855542 L 5.6316562,8.3198229 4.1743312,7.8163208 3.85445,8.6987062 l 1.7626542,0.6096 C 5.826125,9.3797437 6.0526083,9.2966646 6.1737875,9.1265375 l 0.00212,0.00185 0.865452,-0.9088438 0.2079625,2.7813003 h 3.072077"
         id="path18455" />
      <path
         style="fill:#8a6859;stroke-width:1"
         inkscape:connector-curvature="0"
         d="M 4.1232667,8.3190292 4.3209104,7.9033687 C 4.391025,7.7549375 4.3246146,7.5784604 4.1724792,7.5107271 L 3.9663687,7.4170646 C 3.8570958,7.3673229 3.7327417,7.3871667 3.6454292,7.4559583 3.3617958,7.3506542 2.955925,7.2850375 2.7204458,7.7824542 2.6815521,7.864475 2.4653875,8.3187646 3.0173083,8.5682667 3.8303729,8.9360375 3.8303729,8.9360375 4.1232667,8.3190292"
         id="path18457" />
    </symbol>
    <symbol
       viewBox="0 0 24 24"
       id="ic_person_24px">
      <path
         style="stroke-width:1"
         inkscape:connector-curvature="0"
         d="m 3.175,3.175 c 0.5847292,0 1.0583333,-0.4736042 1.0583333,-1.0583333 0,-0.5847292 -0.4736041,-1.0583334 -1.0583333,-1.0583334 -0.5847292,0 -1.0583333,0.4736042 -1.0583333,1.0583334 C 2.1166667,2.7013958 2.5902708,3.175 3.175,3.175 Z m 0,0.5291667 c -0.7064375,0 -2.1166667,0.3545416 -2.1166667,1.0583333 V 5.2916667 H 5.2916667 V 4.7625 C 5.2916667,4.0587083 3.8814375,3.7041667 3.175,3.7041667 Z"
         id="path63374" />
    </symbol>
  </defs>
  <sodipodi:namedview
     id="base"
     pagecolor="#ffffff"
     bordercolor="#666666"
     borderopacity="1.0"
     inkscape:pageopacity="0.0"
     inkscape:pageshadow="2"
     inkscape:zoom="63.356767"
     inkscape:cx="34.457326"
     inkscape:cy="23.998372"
     inkscape:document-units="mm"
     inkscape:current-layer="layer1"
     showgrid="false"
     fit-margin-top="0"
     fit-margin-left="0"
     fit-margin-right="0"
     fit-margin-bottom="0"
     inkscape:window-width="2552"
     inkscape:window-height="1395"
     inkscape:window-x="2560"
     inkscape:window-y="18"
     inkscape:window-maximized="0"
     inkscape:document-rotation="0"
     inkscape:snap-bbox="true"
     inkscape:bbox-paths="true"
     inkscape:bbox-nodes="true"
     inkscape:snap-bbox-edge-midpoints="true"
     inkscape:snap-bbox-midpoints="true"
     inkscape:object-paths="true"
     inkscape:snap-intersection-paths="true"
     inkscape:snap-smooth-nodes="true"
     inkscape:snap-midpoints="true" />
  <metadata
     id="metadata156984">
    <rdf:RDF>
      <cc:Work
         rdf:about="">
        <dc:format>image/svg+xml</dc:format>
        <dc:type
           rdf:resource="http://purl.org/dc/dcmitype/StillImage" />
        <dc:title />
      </cc:Work>
    </rdf:RDF>
  </metadata>
  <g
     inkscape:label="Layer 1"
     inkscape:groupmode="layer"
     id="layer1"
     transform="translate(95.514584,42.946727)">
    <path
       style="fill:#3a608a;stroke:none;stroke-width:1;fill-opacity:1"
       inkscape:connector-curvature="0"
       d="m -87.047917,-34.48006 c 2.338916,0 4.233333,-1.894417 4.233333,-4.233333 0,-2.338917 -1.894417,-4.233334 -4.233333,-4.233334 -2.338917,0 -4.233333,1.894417 -4.233333,4.233334 0,2.338916 1.894416,4.233333 4.233333,4.233333 z m 0,2.116666 c -2.82575,0 -8.466667,1.418167 -8.466667,4.233334 v 2.116666 h 16.933333 v -2.116666 c 0,-2.815167 -5.640916,-4.233334 -8.466666,-4.233334 z"
       id="path191455" />
    <rect
       style="opacity:1;vector-effect:none;fill:#e8eef5;fill-opacity:1;stroke:none;stroke-width:1.665;stroke-linecap:round;stroke-linejoin:round;stroke-miterlimit:4;stroke-dasharray:none;stroke-dashoffset:0;stroke-opacity:1"
       id="rect873"
       width="4.8614006"
       height="2.8855186"
       x="-89.478615"
       y="-38.779556" />
    <path
       style="fill:none;stroke:#e8eef5;stroke-width:0.265;stroke-linecap:round;stroke-linejoin:round;stroke-miterlimit:4;stroke-dasharray:none;stroke-opacity:1;paint-order:stroke markers fill"
       d="m -84.12353,-35.651823 -7.043685,-4.042184"
       id="path875"
       inkscape:connector-curvature="0"
       sodipodi:nodetypes="cc" />
    <path
       sodipodi:nodetypes="cc"
       inkscape:connector-curvature="0"
       id="path875-3"
       d="m -89.965226,-35.651823 7.043689,-4.042184"
       style="fill:none;stroke:#e8eef5;stroke-width:0.264999;stroke-linecap:round;stroke-linejoin:round;stroke-miterlimit:4;stroke-dasharray:none;stroke-opacity:1;paint-order:stroke markers fill" />
  </g>
</svg>
