<?xml version="1.0" encoding="UTF-8" standalone="no"?>
<!-- Created with Inkscape (http://www.inkscape.org/) -->

<svg
   xmlns:dc="http://purl.org/dc/elements/1.1/"
   xmlns:cc="http://creativecommons.org/ns#"
   xmlns:rdf="http://www.w3.org/1999/02/22-rdf-syntax-ns#"
   xmlns:svg="http://www.w3.org/2000/svg"
   xmlns="http://www.w3.org/2000/svg"
   xmlns:sodipodi="http://sodipodi.sourceforge.net/DTD/sodipodi-0.dtd"
   xmlns:inkscape="http://www.inkscape.org/namespaces/inkscape"
   width="212.48975mm"
   height="161.70853mm"
   viewBox="0 0 212.48974 161.70852"
   version="1.1"
   id="svg8"
   inkscape:version="0.92.3 (2405546, 2018-03-11)"
   sodipodi:docname="biological.svg">
  <defs
     id="defs2" />
  <sodipodi:namedview
     id="base"
     pagecolor="#ffffff"
     bordercolor="#666666"
     borderopacity="1.0"
     inkscape:pageopacity="0.0"
     inkscape:pageshadow="2"
     inkscape:zoom="0.98994949"
     inkscape:cx="173.87192"
     inkscape:cy="362.84413"
     inkscape:document-units="mm"
     inkscape:current-layer="layer1"
     showgrid="false"
     showguides="false"
     fit-margin-top="0"
     fit-margin-left="0"
     fit-margin-right="0"
     fit-margin-bottom="0"
     inkscape:window-width="2556"
     inkscape:window-height="1401"
     inkscape:window-x="2560"
     inkscape:window-y="18"
     inkscape:window-maximized="0" />
  <metadata
     id="metadata5">
    <rdf:RDF>
      <cc:Work
         rdf:about="">
        <dc:format>image/svg+xml</dc:format>
        <dc:type
           rdf:resource="http://purl.org/dc/dcmitype/StillImage" />
        <dc:title></dc:title>
      </cc:Work>
    </rdf:RDF>
  </metadata>
  <g
     inkscape:label="Layer 1"
     inkscape:groupmode="layer"
     id="layer1"
     transform="translate(17.34011,-95.046783)">
    <rect
       id="rect1000"
       height="27.448231"
       width="1.4446439"
       y="166.69144"
       x="116.44328"
       style="stroke-width:2;stroke:#000000;stroke-opacity:1;stroke-miterlimit:4;stroke-dasharray:none;stroke-linejoin:round;stroke-linecap:round" />
    <rect
       id="rect1002"
       height="23.174608"
       width="1.4446509"
       transform="rotate(-59.973695)"
       y="90.991501"
       x="-116.46369"
       style="stroke-width:2;stroke:#000000;stroke-opacity:1;stroke-miterlimit:4;stroke-dasharray:none;stroke-linejoin:round;stroke-linecap:round" />
    <rect
       id="rect1004"
       height="22.512367"
       width="1.4446439"
       y="227.30629"
       x="80.206802"
       style="stroke-width:2;stroke:#000000;stroke-opacity:1;stroke-miterlimit:4;stroke-dasharray:none;stroke-linejoin:round;stroke-linecap:round" />
    <polygon
       id="polygon1006"
       points="266.5,142.8 266,142.1 247.1,116.1 245.2,117.5 264,143.5 264.4,144 264.7,144.4 245.9,170.3 247.8,171.7 266,146.7 266,146.6 267.1,145.1 267.7,144.4 267.1,143.7 "
       transform="matrix(0.60193492,0,0,0.60193492,4.0620361,93.496154)"
       style="stroke:#000000;stroke-opacity:1;stroke-width:3.32261833;stroke-miterlimit:4;stroke-dasharray:none;stroke-linejoin:round;stroke-linecap:round" />
    <rect
       id="rect1008"
       height="1.4445837"
       width="16.191374"
       transform="rotate(-54.011383)"
       y="232.00563"
       x="-69.26429"
       style="stroke-width:2;stroke:#000000;stroke-opacity:1;stroke-miterlimit:4;stroke-dasharray:none;stroke-linejoin:round;stroke-linecap:round" />
    <polygon
       id="polygon1010"
       points="214.9,186.6 215.6,184.3 178.7,172.3 178.7,116.5 215.6,104.5 214.9,102.2 177.7,114.3 134,89.1 134,50.2 131.7,50.2 131.7,87.7 128.5,85.9 127.7,85.4 126.8,85.9 123.7,87.7 123.7,50.2 121.3,50.2 121.3,89.1 93.7,105.1 94.9,107.1 126.5,88.9 127.7,88.2 128.8,88.9 128.8,88.8 176.3,116.3 176.3,172.5 143.6,191.5 144.8,193.5 177.7,174.5 "
       transform="matrix(0.60193492,0,0,0.60193492,4.0620361,93.496154)"
       style="stroke:#000000;stroke-opacity:1;stroke-width:3.32261833;stroke-miterlimit:4;stroke-dasharray:none;stroke-linejoin:round;stroke-linecap:round" />
    <rect
       id="rect1012"
       height="1.4446"
       width="21.488424"
       transform="rotate(-71.976358)"
       y="183.27071"
       x="-87.151901"
       style="stroke-width:2;stroke:#000000;stroke-opacity:1;stroke-miterlimit:4;stroke-dasharray:none;stroke-linejoin:round;stroke-linecap:round" />
    <polygon
       id="polygon1014"
       points="85.1,123.1 70.7,100.8 66.8,100.8 66.8,129.5 70.4,129.5 70.4,107.1 70.5,107.1 84.9,129.5 88.7,129.5 88.7,100.8 85.1,100.8 "
       transform="matrix(0.60193492,0,0,0.60193492,4.0620361,93.496154)"
       style="stroke:#000000;stroke-opacity:1;stroke-width:3.32261833;stroke-miterlimit:4;stroke-dasharray:none;stroke-linejoin:round;stroke-linecap:round" />
    <polygon
       id="polygon1016"
       points="47.8,195.1 49,197.2 83,177.6 110.5,193.5 111.7,191.5 79,172.5 79,171.2 79,135.9 76.6,135.9 76.6,166.5 42.6,186.1 43.9,188.2 76.6,169.3 76.6,171.2 76.6,173.2 76.6,173.9 78.9,175.3 80.6,176.2 "
       transform="matrix(0.60193492,0,0,0.60193492,4.0620361,93.496154)"
       style="stroke:#000000;stroke-opacity:1;stroke-width:3.32261833;stroke-miterlimit:4;stroke-dasharray:none;stroke-linejoin:round;stroke-linecap:round" />
    <polygon
       id="polygon1018"
       points="135.1,187.2 135.1,209.5 135,209.5 120.6,187.2 116.7,187.2 116.7,215.9 120.3,215.9 120.3,193.5 134.7,215.9 138.6,215.9 138.6,187.2 "
       transform="matrix(0.60193492,0,0,0.60193492,4.0620361,93.496154)"
       style="stroke:#000000;stroke-opacity:1;stroke-width:3.32261833;stroke-miterlimit:4;stroke-dasharray:none;stroke-linejoin:round;stroke-linecap:round" />
    <path
       id="path1020"
       d="m 25.069565,207.14147 c -1.865998,-1.08349 -4.213545,-1.08349 -4.213545,-1.08349 -2.347546,0 -4.213544,1.08349 -4.213544,1.08349 -1.926192,1.08348 -2.949481,3.13006 -2.949481,3.13006 -1.083483,2.04658 -1.083483,4.69509 -1.083483,4.69509 0,2.58832 1.083483,4.6349 1.083483,4.6349 1.083483,2.04658 2.949481,3.13006 2.949481,3.13006 1.865998,1.08348 4.273738,1.08348 4.273738,1.08348 2.347546,0 4.213544,-1.08348 4.213544,-1.08348 1.865999,-1.08348 2.949481,-3.13006 2.949481,-3.13006 1.083483,-2.04658 1.083483,-4.69509 1.083483,-4.69509 0,-2.70871 -1.083483,-4.6951 -1.083483,-4.6951 -1.083482,-1.98638 -3.009674,-3.06986 -3.009674,-3.06986 z m 0.902902,11.55715 c -0.722322,1.56503 -2.106772,2.40774 -2.106772,2.40774 -1.324257,0.84271 -3.009675,0.84271 -3.009675,0.84271 -1.685417,0 -3.069868,-0.84271 -3.069868,-0.84271 -1.324257,-0.84271 -2.046578,-2.40774 -2.046578,-2.40774 -0.782516,-1.56503 -0.782516,-3.67181 -0.782516,-3.67181 0,-2.16696 0.722322,-3.79219 0.722322,-3.79219 0.722322,-1.56503 2.046579,-2.40774 2.046579,-2.40774 1.324257,-0.8427 3.069868,-0.8427 3.069868,-0.8427 1.745611,0 3.069868,0.8427 3.069868,0.8427 1.324257,0.84271 2.046579,2.40774 2.046579,2.40774 0.722322,1.56504 0.722322,3.732 0.722322,3.732 0.120387,2.16697 -0.662129,3.732 -0.662129,3.732 z"
       inkscape:connector-curvature="0"
       style="stroke-width:2;stroke:#000000;stroke-opacity:1;stroke-miterlimit:4;stroke-dasharray:none;stroke-linejoin:round;stroke-linecap:round" />
    <path
       id="path1022"
       d="m 76.655387,118.71723 c 1.926192,1.08348 4.273738,1.08348 4.273738,1.08348 2.347547,0 4.213545,-1.08348 4.213545,-1.08348 1.865998,-1.08349 2.949481,-3.13006 2.949481,-3.13006 1.083483,-2.04658 1.083483,-4.6951 1.083483,-4.6951 0,-2.7087 -1.083483,-4.69509 -1.083483,-4.69509 -1.083483,-1.98638 -2.949481,-3.13006 -2.949481,-3.13006 -1.865998,-1.08348 -4.213545,-1.08348 -4.213545,-1.08348 -2.347546,0 -4.213544,1.08348 -4.213544,1.08348 -1.926192,1.08348 -2.949481,3.13006 -2.949481,3.13006 -1.083483,2.04658 -1.083483,4.69509 -1.083483,4.69509 0,2.58832 1.083483,4.6349 1.083483,4.6349 1.023289,2.10677 2.889287,3.19026 2.889287,3.19026 z m -0.902902,-11.49696 c 0.722322,-1.56503 2.106772,-2.40774 2.106772,-2.40774 1.324257,-0.84271 3.069868,-0.84271 3.069868,-0.84271 1.745612,0 3.069868,0.84271 3.069868,0.84271 1.324257,0.84271 2.106773,2.40774 2.106773,2.40774 0.722322,1.56503 0.722322,3.732 0.722322,3.732 0,2.16696 -0.722322,3.73199 -0.722322,3.73199 -0.722322,1.56503 -2.106773,2.40774 -2.106773,2.40774 -1.324256,0.84271 -3.009674,0.84271 -3.009674,0.84271 -1.685418,0 -3.009675,-0.84271 -3.009675,-0.84271 -1.324257,-0.84271 -2.106772,-2.40774 -2.106772,-2.40774 -0.722322,-1.56503 -0.722322,-3.6718 -0.722322,-3.6718 -0.120387,-2.16697 0.601935,-3.79219 0.601935,-3.79219 z"
       inkscape:connector-curvature="0"
       style="stroke-width:2;stroke:#000000;stroke-opacity:1;stroke-miterlimit:4;stroke-dasharray:none;stroke-linejoin:round;stroke-linecap:round" />
    <polygon
       id="polygon1024"
       points="221.3,176.2 221.3,204.9 224.9,204.9 224.9,182.5 225,182.5 239.4,204.9 243.3,204.9 243.3,176.2 239.7,176.2 239.7,198.5 239.6,198.5 225.3,176.2 "
       transform="matrix(0.60193492,0,0,0.60193492,4.0620361,93.496154)"
       style="stroke:#000000;stroke-opacity:1;stroke-width:3.32261833;stroke-miterlimit:4;stroke-dasharray:none;stroke-linejoin:round;stroke-linecap:round" />
    <polygon
       id="polygon1026"
       points="243.3,83 239.7,83 239.7,105.3 239.6,105.3 225.3,83 221.3,83 221.3,111.7 224.9,111.7 224.9,89.3 225,89.3 239.4,111.7 243.3,111.7 "
       transform="matrix(0.60193492,0,0,0.60193492,4.0620361,93.496154)"
       style="stroke:#000000;stroke-opacity:1;stroke-width:3.32261833;stroke-miterlimit:4;stroke-dasharray:none;stroke-linejoin:round;stroke-linecap:round" />
  </g>
</svg>
