<?xml version="1.0" encoding="UTF-8" standalone="no"?>
<!-- Created with Inkscape (http://www.inkscape.org/) -->

<svg
   xmlns:dc="http://purl.org/dc/elements/1.1/"
   xmlns:cc="http://creativecommons.org/ns#"
   xmlns:rdf="http://www.w3.org/1999/02/22-rdf-syntax-ns#"
   xmlns:svg="http://www.w3.org/2000/svg"
   xmlns="http://www.w3.org/2000/svg"
   xmlns:sodipodi="http://sodipodi.sourceforge.net/DTD/sodipodi-0.dtd"
   xmlns:inkscape="http://www.inkscape.org/namespaces/inkscape"
   width="212.48975mm"
   height="161.70853mm"
   viewBox="0 0 212.48974 161.70852"
   version="1.1"
   id="svg8"
   inkscape:version="0.92.3 (2405546, 2018-03-11)"
   sodipodi:docname="biological.svg">
  <defs
     id="defs2" />
  <sodipodi:namedview
     id="base"
     pagecolor="#ffffff"
     bordercolor="#666666"
     borderopacity="1.0"
     inkscape:pageopacity="0.0"
     inkscape:pageshadow="2"
     inkscape:zoom="0.7"
     inkscape:cx="391.92662"
     inkscape:cy="168.20733"
     inkscape:document-units="mm"
     inkscape:current-layer="layer1"
     showgrid="false"
     showguides="false"
     fit-margin-top="0"
     fit-margin-left="0"
     fit-margin-right="0"
     fit-margin-bottom="0"
     inkscape:window-width="956"
     inkscape:window-height="1023"
     inkscape:window-x="0"
     inkscape:window-y="36"
     inkscape:window-maximized="0" />
  <metadata
     id="metadata5">
    <rdf:RDF>
      <cc:Work
         rdf:about="">
        <dc:format>image/svg+xml</dc:format>
        <dc:type
           rdf:resource="http://purl.org/dc/dcmitype/StillImage" />
        <dc:title></dc:title>
      </cc:Work>
    </rdf:RDF>
  </metadata>
  <g
     inkscape:label="Layer 1"
     inkscape:groupmode="layer"
     id="layer1"
     transform="translate(17.34011,-95.046783)">
    <g
       transform="matrix(0.60193492,0,0,0.60193492,4.0620361,93.496154)"
       id="g1028">
      <rect
         x="186.7"
         y="121.6"
         width="2.4000001"
         height="45.599998"
         id="rect1000" />
      <rect
         x="43.400002"
         y="77.199997"
         transform="matrix(0.5004,-0.8658,0.8658,0.5004,-61.2454,86.7775)"
         width="2.4000001"
         height="38.5"
         id="rect1002" />
      <rect
         x="126.5"
         y="222.3"
         width="2.4000001"
         height="37.400002"
         id="rect1004" />
      <polygon
         points="264,143.5 264,143.5 264.4,144 264.7,144.4 245.9,170.3 247.8,171.7 266,146.7 266,146.7 266,146.6 267.1,145.1 267.7,144.4 267.1,143.7 266.5,142.8 266,142.1 247.1,116.1 245.2,117.5 "
         id="polygon1006" />
      <rect
         x="232.89999"
         y="152.89999"
         transform="matrix(0.5876,-0.8091,0.8091,0.5876,-23.0624,262.8658)"
         width="26.9"
         height="2.4000001"
         id="rect1008" />
      <polygon
         points="123.7,87.7 123.7,50.2 121.3,50.2 121.3,89.1 93.7,105.1 94.9,107.1 126.5,88.9 126.5,88.9 127.7,88.2 128.8,88.9 128.8,88.8 176.3,116.3 176.3,172.5 143.6,191.5 144.8,193.5 177.7,174.5 214.9,186.6 215.6,184.3 178.7,172.3 178.7,116.5 215.6,104.5 214.9,102.2 177.7,114.3 134,89.1 134,50.2 131.7,50.2 131.7,87.7 128.5,85.9 127.7,85.4 126.8,85.9 "
         id="polygon1010" />
      <rect
         x="226.8"
         y="58.799999"
         transform="matrix(0.3094,-0.9509,0.9509,0.3094,111.8973,274.0325)"
         width="35.700001"
         height="2.4000001"
         id="rect1012" />
      <polygon
         points="66.8,100.8 66.8,129.5 70.4,129.5 70.4,107.1 70.5,107.1 84.9,129.5 88.7,129.5 88.7,100.8 85.1,100.8 85.1,123.1 70.7,100.8 "
         id="polygon1014" />
      <polygon
         points="76.6,173.9 78.9,175.3 78.9,175.3 80.6,176.2 47.8,195.1 49,197.2 83,177.6 110.5,193.5 111.7,191.5 79,172.5 79,171.2 79,135.9 76.6,135.9 76.6,166.5 42.6,186.1 43.9,188.2 76.6,169.3 76.6,171.2 76.6,173.2 "
         id="polygon1016" />
      <polygon
         points="138.6,215.9 138.6,187.2 135.1,187.2 135.1,209.5 135,209.5 120.6,187.2 116.7,187.2 116.7,215.9 120.3,215.9 120.3,193.5 134.7,215.9 "
         id="polygon1018" />
      <path
         inkscape:connector-curvature="0"
         d="m 34.9,188.8 c -3.1,-1.8 -7,-1.8 -7,-1.8 -3.9,0 -7,1.8 -7,1.8 -3.2,1.8 -4.9,5.2 -4.9,5.2 -1.8,3.4 -1.8,7.8 -1.8,7.8 0,4.3 1.8,7.7 1.8,7.7 1.8,3.4 4.9,5.2 4.9,5.2 3.1,1.8 7.1,1.8 7.1,1.8 3.9,0 7,-1.8 7,-1.8 3.1,-1.8 4.9,-5.2 4.9,-5.2 1.8,-3.4 1.8,-7.8 1.8,-7.8 0,-4.5 -1.8,-7.8 -1.8,-7.8 -1.8,-3.3 -5,-5.1 -5,-5.1 z m 1.5,19.2 c -1.2,2.6 -3.5,4 -3.5,4 -2.2,1.4 -5,1.4 -5,1.4 -2.8,0 -5.1,-1.4 -5.1,-1.4 -2.2,-1.4 -3.4,-4 -3.4,-4 -1.3,-2.6 -1.3,-6.1 -1.3,-6.1 0,-3.6 1.2,-6.3 1.2,-6.3 1.2,-2.6 3.4,-4 3.4,-4 2.2,-1.4 5.1,-1.4 5.1,-1.4 2.9,0 5.1,1.4 5.1,1.4 2.2,1.4 3.4,4 3.4,4 1.2,2.6 1.2,6.2 1.2,6.2 0.2,3.6 -1.1,6.2 -1.1,6.2 z"
         id="path1020" />
      <path
         inkscape:connector-curvature="0"
         d="m 120.6,41.9 c 3.2,1.8 7.1,1.8 7.1,1.8 3.9,0 7,-1.8 7,-1.8 3.1,-1.8 4.9,-5.2 4.9,-5.2 1.8,-3.4 1.8,-7.8 1.8,-7.8 0,-4.5 -1.8,-7.8 -1.8,-7.8 -1.8,-3.3 -4.9,-5.2 -4.9,-5.2 -3.1,-1.8 -7,-1.8 -7,-1.8 -3.9,0 -7,1.8 -7,1.8 -3.2,1.8 -4.9,5.2 -4.9,5.2 -1.8,3.4 -1.8,7.8 -1.8,7.8 0,4.3 1.8,7.7 1.8,7.7 1.7,3.5 4.8,5.3 4.8,5.3 z m -1.5,-19.1 c 1.2,-2.6 3.5,-4 3.5,-4 2.2,-1.4 5.1,-1.4 5.1,-1.4 2.9,0 5.1,1.4 5.1,1.4 2.2,1.4 3.5,4 3.5,4 1.2,2.6 1.2,6.2 1.2,6.2 0,3.6 -1.2,6.2 -1.2,6.2 -1.2,2.6 -3.5,4 -3.5,4 -2.2,1.4 -5,1.4 -5,1.4 -2.8,0 -5,-1.4 -5,-1.4 -2.2,-1.4 -3.5,-4 -3.5,-4 -1.2,-2.6 -1.2,-6.1 -1.2,-6.1 -0.2,-3.6 1,-6.3 1,-6.3 z"
         id="path1022" />
      <polygon
         points="243.3,204.9 243.3,176.2 239.7,176.2 239.7,198.5 239.6,198.5 225.3,176.2 221.3,176.2 221.3,204.9 224.9,204.9 224.9,182.5 225,182.5 239.4,204.9 "
         id="polygon1024" />
      <polygon
         points="221.3,83 221.3,111.7 224.9,111.7 224.9,89.3 225,89.3 239.4,111.7 243.3,111.7 243.3,83 239.7,83 239.7,105.3 239.6,105.3 225.3,83 "
         id="polygon1026" />
    </g>
  </g>
</svg>
