<?xml version="1.0" encoding="UTF-8" standalone="no"?>
<!-- Created with Inkscape (http://www.inkscape.org/) -->

<svg
   xmlns:dc="http://purl.org/dc/elements/1.1/"
   xmlns:cc="http://creativecommons.org/ns#"
   xmlns:rdf="http://www.w3.org/1999/02/22-rdf-syntax-ns#"
   xmlns:svg="http://www.w3.org/2000/svg"
   xmlns="http://www.w3.org/2000/svg"
   xmlns:sodipodi="http://sodipodi.sourceforge.net/DTD/sodipodi-0.dtd"
   xmlns:inkscape="http://www.inkscape.org/namespaces/inkscape"
   width="212.48975mm"
   height="161.70853mm"
   viewBox="0 0 212.48974 161.70852"
   version="1.1"
   id="svg8"
   inkscape:version="0.92.3 (2405546, 2018-03-11)"
   sodipodi:docname="collaboration.svg">
  <defs
     id="defs2" />
  <sodipodi:namedview
     id="base"
     pagecolor="#ffffff"
     bordercolor="#666666"
     borderopacity="1.0"
     inkscape:pageopacity="0.0"
     inkscape:pageshadow="2"
     inkscape:zoom="0.49497475"
     inkscape:cx="367.52822"
     inkscape:cy="-227.27959"
     inkscape:document-units="mm"
     inkscape:current-layer="layer1"
     showgrid="false"
     showguides="false"
     fit-margin-top="0"
     fit-margin-left="0"
     fit-margin-right="0"
     fit-margin-bottom="0"
     inkscape:window-width="956"
     inkscape:window-height="1023"
     inkscape:window-x="0"
     inkscape:window-y="36"
     inkscape:window-maximized="0"
     inkscape:snap-global="false" />
  <metadata
     id="metadata5">
    <rdf:RDF>
      <cc:Work
         rdf:about="">
        <dc:format>image/svg+xml</dc:format>
        <dc:type
           rdf:resource="http://purl.org/dc/dcmitype/StillImage" />
        <dc:title></dc:title>
      </cc:Work>
    </rdf:RDF>
  </metadata>
  <g
     inkscape:label="Layer 1"
     inkscape:groupmode="layer"
     id="layer1"
     transform="translate(17.34011,-95.046783)">
    <g
       id="g2691"
       transform="matrix(1.1457726,0,0,1.1457726,11.065629,-279.24729)">
      <path
         transform="matrix(0.26458333,0,0,0.26458333,-17.34011,95.046783)"
         inkscape:connector-curvature="0"
         id="path2653"
         d="m 164.5546,1329.1331 c -7.68228,-3.1078 -14.98751,-13.883 -14.98751,-22.1064 0,-10.6217 5.66742,-18.6134 59.23237,-83.524 15.36181,-18.6156 29.62387,-34.7528 31.69345,-35.8604 9.91896,-5.3085 25.44536,0.8016 31.42606,12.367 2.75355,5.3248 2.94936,7.8157 1.09972,13.9892 -3.35838,11.2093 -49.32901,70.084 -80.76484,103.4358 -13.23846,14.0453 -17.47533,15.8348 -27.69925,11.6988 z"
         style="opacity:1;vector-effect:none;fill:#040404;fill-opacity:1;stroke:none;stroke-width:81.65722656;stroke-linecap:round;stroke-linejoin:round;stroke-miterlimit:4;stroke-dasharray:none;stroke-dashoffset:0;stroke-opacity:1" />
      <path
         sodipodi:nodetypes="cccscccccccccccsccscccccccczzzsscscccccccssccsccsccscscsccccccscscscc"
         transform="matrix(0.26458333,0,0,0.26458333,-17.34011,95.046783)"
         inkscape:connector-curvature="0"
         id="path2672"
         d="m 375.84125,1318.9015 c 0,-17.6168 0.66117,-21.575 5.05077,-30.2375 12.83095,-25.3206 1.87377,-49.8951 -24.74874,-55.5058 -3.6113,-0.7611 -6.56599,-1.6551 -6.56599,-1.9866 0,-0.3316 1.45941,-4.0958 3.24313,-8.3649 6.57018,-15.7246 -0.0523,-33.4069 -15.45462,-41.2646 -9.78143,-4.9901 -25.4674,-5.2753 -32.16399,-0.5849 -2.67763,1.8755 -8.10746,3.9542 -12.06627,4.6193 -6.89544,1.1584 -7.18679,1.5457 -6.93449,9.2169 l 0.26338,8.0077 -3.29384,-5.003 c -11.50305,-17.4721 -22.07618,-23.5261 -37.96056,-21.7357 -10.53113,1.187 -12.92085,3.1338 -31.58214,25.7285 -7.8007,9.4449 -17.80067,20.9686 -22.22212,25.6082 l -8.03902,8.4356 -4.92047,-9.8741 c -5.17572,-10.3863 -13.23465,-16.7147 -24.25062,-19.0433 -6.03137,-1.2749 -7.68922,-0.2343 -23.79288,14.9344 -9.52039,8.9676 -18.00998,16.3047 -18.86578,16.3047 -0.85579,0 -5.10698,-3.6365 -9.44708,-8.0812 l -7.891105,-8.0812 H 35.009833 -24.17915 V 1107.8467 993.6995 h 67.893915 67.893915 c 0,0 5.92149,-5.53002 15.12232,-14.12258 9.20083,-8.59256 39.08494,-26.5947 74.35387,-37.79458 35.26893,-11.19988 33.52271,-9.6215 55.55839,-9.60839 22.03568,0.0131 27.03531,0.80779 33.07716,3.49637 9.65702,4.29731 9.14345,5.03916 -13.51853,19.52784 l -17.09532,10.92969 -15.5342,49.64625 c -8.54381,27.3054 -16.45385,52.6379 -17.57789,56.2944 -1.12402,3.6564 -2.10538,10.7291 -2.18078,15.7169 -0.11051,7.3059 0.97191,10.2264 5.5678,15.0235 26.04638,27.1865 70.97043,-3.287 105.74972,-71.7338 4.51688,-8.8893 9.03917,-17.3835 10.04954,-18.8759 1.50414,-2.2217 5.45579,-1.7356 21.80463,2.6824 10.98216,2.9677 22.00884,6.7071 24.50375,8.3097 6.01781,3.8655 92.4726,102.4182 99.64624,113.59 7.58602,11.814 8.64991,26.3745 6.19126,84.7342 -1.62757,38.6328 -2.6367,48.3358 -5.66924,54.5105 -4.3382,8.8333 -19.79634,20.5725 -22.9444,17.4245 -2.53063,-2.5306 -5.87466,-54.5265 -5.9459,-92.4519 l -0.0527,-28.0665 -9.10422,-10.6566 c -5.00733,-5.8611 -21.48459,-24.1419 -36.61613,-40.6239 -15.13156,-16.482 -29.68337,-33.3766 -32.33737,-37.5434 -5.0109,-7.8673 -10.11708,-9.7794 -12.12714,-4.5412 -2.57567,6.712 2.62167,14.0968 35.09874,49.871 18.6301,20.5215 35.62378,39.3076 37.76372,41.747 3.51736,4.0094 4.14306,10.2967 6.51868,65.5028 1.44531,33.5872 2.13425,62.6556 1.53097,64.5965 -1.66463,5.3556 -17.30998,13.6437 -25.75501,13.6437 H 420.288 v -48.0773 -48.0773 l -8.28612,-7.9862 c -14.23441,-13.7191 -63.29786,-66.3235 -66.80442,-71.6257 -3.12501,-4.7253 -3.56404,-4.834 -6.8132,-1.6863 -6.43972,6.2388 -1.74154,13.2065 34.52134,51.198 l 35.26057,36.9414 v 45.1979 c 0,45.044 -0.0182,45.2235 -5.11954,52.7319 -4.97161,7.3164 -17.78549,15.6273 -24.0944,15.6273 -2.59435,0 -3.11095,-3.3661 -3.11095,-20.2702 z"
         style="opacity:1;vector-effect:none;fill:#040404;fill-opacity:1;stroke:none;stroke-width:81.65722656;stroke-linecap:round;stroke-linejoin:round;stroke-miterlimit:4;stroke-dasharray:none;stroke-dashoffset:0;stroke-opacity:1" />
      <path
         transform="matrix(0.26458333,0,0,0.26458333,-17.34011,95.046783)"
         inkscape:connector-curvature="0"
         id="path2674"
         d="m 117.24118,1296.2402 c -7.71551,-5.2665 -14.14111,-16.2207 -14.14111,-24.1073 0,-9.6681 41.46023,-54.1795 50.46558,-54.1795 10.49121,0 18.22479,10.0471 18.22479,23.6767 0,6.672 -2.4818,10.8507 -18.35806,30.91 -24.86159,31.4121 -24.87764,31.4226 -36.1912,23.7001 z"
         style="opacity:1;vector-effect:none;fill:#040404;fill-opacity:1;stroke:none;stroke-width:81.65722656;stroke-linecap:round;stroke-linejoin:round;stroke-miterlimit:4;stroke-dasharray:none;stroke-dashoffset:0;stroke-opacity:1" />
      <path
         transform="matrix(0.26458333,0,0,0.26458333,-17.34011,95.046783)"
         inkscape:connector-curvature="0"
         id="path2676"
         d="m 223.30822,1351.5752 c -12.40215,-7.6607 -18.90638,-19.5311 -14.85243,-27.106 4.9968,-9.3366 96.60581,-130.4821 100.99292,-133.5549 9.72582,-6.8122 27.12133,-1.9935 33.35478,9.2397 5.51967,9.9469 3.46757,16.2392 -12.92418,39.6291 -19.13839,27.3093 -68.99929,92.4275 -80.99942,105.785 -9.82841,10.9402 -15.44812,12.2604 -25.57167,6.0071 z"
         style="opacity:1;vector-effect:none;fill:#040404;fill-opacity:1;stroke:none;stroke-width:81.65722656;stroke-linecap:round;stroke-linejoin:round;stroke-miterlimit:4;stroke-dasharray:none;stroke-dashoffset:0;stroke-opacity:1" />
      <path
         transform="matrix(0.26458333,0,0,0.26458333,-17.34011,95.046783)"
         inkscape:connector-curvature="0"
         id="path2678"
         d="m 276.39202,1368.3473 c -6.74086,-3.6581 -10.08567,-9.4697 -8.27749,-14.3821 3.85064,-10.4612 55.53009,-81.5484 72.07444,-99.1413 7.38834,-7.8566 11.4297,-10.6066 15.58729,-10.6066 7.67244,0 17.48598,8.7781 20.29494,18.1536 2.01659,6.7308 1.7603,8.911 -1.94176,16.5186 -6.26746,12.8794 -39.07495,54.6043 -58.91555,74.9294 -16.05562,16.4477 -17.81501,17.672 -25.28655,17.5968 -4.41665,-0.044 -10.50754,-1.4253 -13.53532,-3.0684 z"
         style="opacity:1;vector-effect:none;fill:#040404;fill-opacity:1;stroke:none;stroke-width:81.65722656;stroke-linecap:round;stroke-linejoin:round;stroke-miterlimit:4;stroke-dasharray:none;stroke-dashoffset:0;stroke-opacity:1" />
      <path
         transform="matrix(0.26458333,0,0,0.26458333,-17.34011,95.046783)"
         inkscape:connector-curvature="0"
         id="path2680"
         d="m 507.11672,1200.2757 c -0.0515,-62.7546 0.35214,-61.0565 -20.3555,-85.6299 -40.92062,-48.5598 -87.20972,-100.3377 -91.41357,-102.2531 -8.7018,-3.9648 -51.84217,-14.88432 -53.86507,-13.6341 -1.08324,0.66948 -7.848,12.7603 -15.03281,26.8684 -14.63578,28.739 -33.40483,53.6801 -49.62587,65.945 -8.79989,6.6537 -12.45539,8.1076 -22.14838,8.8087 -6.55264,0.474 -13.49206,-0.1681 -15.93232,-1.474 -8.60419,-4.6049 -5.2231,-21.855 18.13563,-92.5268 11.7848,-35.65487 9.50648,-32.97561 48.82729,-57.41993 37.56194,-23.3509 62.64425,-36.07268 71.12103,-36.07268 19.67817,0 79.92985,28.86006 131.34409,62.91274 l 34.34518,22.74751 63.13454,0.85074 63.13453,0.85072 v 113.9541 113.9542 l -66.00658,-0.158 -66.00658,-0.158 -13.3411,13.2389 c -7.33759,7.2812 -14.00013,13.2387 -14.80563,13.2387 -0.80547,0 -1.48448,-24.3195 -1.50888,-54.0432 z"
         style="opacity:1;vector-effect:none;fill:#040404;fill-opacity:1;stroke:none;stroke-width:81.65722656;stroke-linecap:round;stroke-linejoin:round;stroke-miterlimit:4;stroke-dasharray:none;stroke-dashoffset:0;stroke-opacity:1" />
      <path
         transform="matrix(0.26458333,0,0,0.26458333,-17.34011,95.046783)"
         inkscape:connector-curvature="0"
         id="path2682"
         d="m 337.45546,1349.1736 c 0,-1.4586 5.22754,-9.4857 11.61675,-17.8381 l 11.61676,-15.1861 0.6104,12.8649 c 0.49762,10.4881 -0.10082,13.5762 -3.23906,16.7144 -4.75158,4.7516 -20.60485,7.402 -20.60485,3.4449 z"
         style="opacity:1;vector-effect:none;fill:#040404;fill-opacity:1;stroke:none;stroke-width:81.65722656;stroke-linecap:round;stroke-linejoin:round;stroke-miterlimit:4;stroke-dasharray:none;stroke-dashoffset:0;stroke-opacity:1" />
    </g>
  </g>
</svg>
